<svg width="1260" height="45" viewBox="0 0 1260 45" fill="none" xmlns="http://www.w3.org/2000/svg">
<rect y="19.5" width="448.5" height="1" fill="#105C8D"/>
<path d="M474.081 34L467.681 22.88H464.201V34H459.641V6.2H469.241C471.374 6.2 473.174 6.57333 474.641 7.32C476.134 8.06666 477.241 9.06667 477.961 10.32C478.707 11.5733 479.081 12.9733 479.081 14.52C479.081 16.3333 478.547 17.9867 477.481 19.48C476.441 20.9467 474.827 21.9467 472.641 22.48L479.521 34H474.081ZM464.201 19.24H469.241C470.947 19.24 472.227 18.8133 473.081 17.96C473.961 17.1067 474.401 15.96 474.401 14.52C474.401 13.08 473.974 11.96 473.121 11.16C472.267 10.3333 470.974 9.92 469.241 9.92H464.201V19.24ZM505.114 22.44C505.114 23.2667 505.061 24.0133 504.954 24.68H488.114C488.247 26.44 488.901 27.8533 490.074 28.92C491.247 29.9867 492.687 30.52 494.394 30.52C496.847 30.52 498.581 29.4933 499.594 27.44H504.514C503.847 29.4667 502.634 31.1333 500.874 32.44C499.141 33.72 496.981 34.36 494.394 34.36C492.287 34.36 490.394 33.8933 488.714 32.96C487.061 32 485.754 30.6667 484.794 28.96C483.861 27.2267 483.394 25.2267 483.394 22.96C483.394 20.6933 483.847 18.7067 484.754 17C485.687 15.2667 486.981 13.9333 488.634 13C490.314 12.0667 492.234 11.6 494.394 11.6C496.474 11.6 498.327 12.0533 499.954 12.96C501.581 13.8667 502.847 15.1467 503.754 16.8C504.661 18.4267 505.114 20.3067 505.114 22.44ZM500.354 21C500.327 19.32 499.727 17.9733 498.554 16.96C497.381 15.9467 495.927 15.44 494.194 15.44C492.621 15.44 491.274 15.9467 490.154 16.96C489.034 17.9467 488.367 19.2933 488.154 21H500.354ZM518.122 29.92L524.362 11.96H529.202L520.802 34H515.362L507.002 11.96H511.882L518.122 29.92ZM534.968 9.04C534.142 9.04 533.448 8.76 532.888 8.2C532.328 7.64 532.048 6.94667 532.048 6.12C532.048 5.29333 532.328 4.6 532.888 4.04C533.448 3.48 534.142 3.2 534.968 3.2C535.768 3.2 536.448 3.48 537.008 4.04C537.568 4.6 537.848 5.29333 537.848 6.12C537.848 6.94667 537.568 7.64 537.008 8.2C536.448 8.76 535.768 9.04 534.968 9.04ZM537.208 11.96V34H532.648V11.96H537.208ZM563.395 22.44C563.395 23.2667 563.342 24.0133 563.235 24.68H546.395C546.529 26.44 547.182 27.8533 548.355 28.92C549.529 29.9867 550.969 30.52 552.675 30.52C555.129 30.52 556.862 29.4933 557.875 27.44H562.795C562.129 29.4667 560.915 31.1333 559.155 32.44C557.422 33.72 555.262 34.36 552.675 34.36C550.569 34.36 548.675 33.8933 546.995 32.96C545.342 32 544.035 30.6667 543.075 28.96C542.142 27.2267 541.675 25.2267 541.675 22.96C541.675 20.6933 542.129 18.7067 543.035 17C543.969 15.2667 545.262 13.9333 546.915 13C548.595 12.0667 550.515 11.6 552.675 11.6C554.755 11.6 556.609 12.0533 558.235 12.96C559.862 13.8667 561.129 15.1467 562.035 16.8C562.942 18.4267 563.395 20.3067 563.395 22.44ZM558.635 21C558.609 19.32 558.009 17.9733 556.835 16.96C555.662 15.9467 554.209 15.44 552.475 15.44C550.902 15.44 549.555 15.9467 548.435 16.96C547.315 17.9467 546.649 19.2933 546.435 21H558.635ZM597.483 11.96L590.643 34H585.843L581.403 17.72L576.963 34H572.163L565.283 11.96H569.923L574.523 29.68L579.203 11.96H583.963L588.443 29.6L593.003 11.96H597.483ZM626.161 19.72C627.655 19.9867 628.921 20.7733 629.961 22.08C631.001 23.3867 631.521 24.8667 631.521 26.52C631.521 27.9333 631.148 29.2133 630.401 30.36C629.681 31.48 628.628 32.3733 627.241 33.04C625.855 33.68 624.241 34 622.401 34H611.281V6.2H621.881C623.775 6.2 625.401 6.52 626.761 7.16C628.121 7.8 629.148 8.66667 629.841 9.76C630.535 10.8267 630.881 12.0267 630.881 13.36C630.881 14.96 630.455 16.2933 629.601 17.36C628.748 18.4267 627.601 19.2133 626.161 19.72ZM615.841 17.88H621.481C622.975 17.88 624.135 17.5467 624.961 16.88C625.815 16.1867 626.241 15.2 626.241 13.92C626.241 12.6667 625.815 11.6933 624.961 11C624.135 10.28 622.975 9.92 621.481 9.92H615.841V17.88ZM622.001 30.28C623.548 30.28 624.761 29.9067 625.641 29.16C626.521 28.4133 626.961 27.3733 626.961 26.04C626.961 24.68 626.495 23.6 625.561 22.8C624.628 22 623.388 21.6 621.841 21.6H615.841V30.28H622.001ZM656.317 11.96L642.797 44.36H638.077L642.557 33.64L633.877 11.96H638.957L645.157 28.76L651.597 11.96H656.317ZM688.108 6.2V9.92H680.708V34H676.148V9.92H668.708V6.2H688.108ZM702.287 34.36C700.207 34.36 698.327 33.8933 696.647 32.96C694.967 32 693.647 30.6667 692.687 28.96C691.727 27.2267 691.247 25.2267 691.247 22.96C691.247 20.72 691.74 18.7333 692.727 17C693.713 15.2667 695.06 13.9333 696.767 13C698.473 12.0667 700.38 11.6 702.487 11.6C704.593 11.6 706.5 12.0667 708.207 13C709.913 13.9333 711.26 15.2667 712.247 17C713.233 18.7333 713.727 20.72 713.727 22.96C713.727 25.2 713.22 27.1867 712.207 28.92C711.193 30.6533 709.807 32 708.047 32.96C706.313 33.8933 704.393 34.36 702.287 34.36ZM702.287 30.4C703.46 30.4 704.553 30.12 705.567 29.56C706.607 29 707.447 28.16 708.087 27.04C708.727 25.92 709.047 24.56 709.047 22.96C709.047 21.36 708.74 20.0133 708.127 18.92C707.513 17.8 706.7 16.96 705.687 16.4C704.673 15.84 703.58 15.56 702.407 15.56C701.233 15.56 700.14 15.84 699.127 16.4C698.14 16.96 697.353 17.8 696.767 18.92C696.18 20.0133 695.887 21.36 695.887 22.96C695.887 25.3333 696.487 27.1733 697.687 28.48C698.913 29.76 700.447 30.4 702.287 30.4ZM738.194 11.96V34H733.634V31.4C732.914 32.3067 731.968 33.0267 730.794 33.56C729.648 34.0667 728.421 34.32 727.114 34.32C725.381 34.32 723.821 33.96 722.434 33.24C721.074 32.52 719.994 31.4533 719.194 30.04C718.421 28.6267 718.034 26.92 718.034 24.92V11.96H722.554V24.24C722.554 26.2133 723.048 27.7333 724.034 28.8C725.021 29.84 726.368 30.36 728.074 30.36C729.781 30.36 731.128 29.84 732.114 28.8C733.128 27.7333 733.634 26.2133 733.634 24.24V11.96H738.194ZM748.771 15.16C749.438 14.04 750.318 13.1733 751.411 12.56C752.531 11.92 753.851 11.6 755.371 11.6V16.32H754.211C752.424 16.32 751.064 16.7733 750.131 17.68C749.224 18.5867 748.771 20.16 748.771 22.4V34H744.211V11.96H748.771V15.16ZM761.883 9.04C761.056 9.04 760.363 8.76 759.803 8.2C759.243 7.64 758.963 6.94667 758.963 6.12C758.963 5.29333 759.243 4.6 759.803 4.04C760.363 3.48 761.056 3.2 761.883 3.2C762.683 3.2 763.363 3.48 763.923 4.04C764.483 4.6 764.763 5.29333 764.763 6.12C764.763 6.94667 764.483 7.64 763.923 8.2C763.363 8.76 762.683 9.04 761.883 9.04ZM764.123 11.96V34H759.563V11.96H764.123ZM778.109 34.36C776.376 34.36 774.816 34.0533 773.429 33.44C772.069 32.8 770.989 31.9467 770.189 30.88C769.389 29.7867 768.963 28.5733 768.909 27.24H773.629C773.709 28.1733 774.149 28.96 774.949 29.6C775.776 30.2133 776.803 30.52 778.029 30.52C779.309 30.52 780.296 30.28 780.989 29.8C781.709 29.2933 782.069 28.6533 782.069 27.88C782.069 27.0533 781.669 26.44 780.869 26.04C780.096 25.64 778.856 25.2 777.149 24.72C775.496 24.2667 774.149 23.8267 773.109 23.4C772.069 22.9733 771.163 22.32 770.389 21.44C769.643 20.56 769.269 19.4 769.269 17.96C769.269 16.7867 769.616 15.72 770.309 14.76C771.003 13.7733 771.989 13 773.269 12.44C774.576 11.88 776.069 11.6 777.749 11.6C780.256 11.6 782.269 12.24 783.789 13.52C785.336 14.7733 786.163 16.4933 786.269 18.68H781.709C781.629 17.6933 781.229 16.9067 780.509 16.32C779.789 15.7333 778.816 15.44 777.589 15.44C776.389 15.44 775.469 15.6667 774.829 16.12C774.189 16.5733 773.869 17.1733 773.869 17.92C773.869 18.5067 774.083 19 774.509 19.4C774.936 19.8 775.456 20.12 776.069 20.36C776.683 20.5733 777.589 20.8533 778.789 21.2C780.389 21.6267 781.696 22.0667 782.709 22.52C783.749 22.9467 784.643 23.5867 785.389 24.44C786.136 25.2933 786.523 26.4267 786.549 27.84C786.549 29.0933 786.203 30.2133 785.509 31.2C784.816 32.1867 783.829 32.96 782.549 33.52C781.296 34.08 779.816 34.36 778.109 34.36ZM796.797 15.68V27.88C796.797 28.7067 796.983 29.3067 797.357 29.68C797.757 30.0267 798.423 30.2 799.357 30.2H802.157V34H798.557C796.503 34 794.93 33.52 793.837 32.56C792.743 31.6 792.197 30.04 792.197 27.88V15.68H789.597V11.96H792.197V6.48H796.797V11.96H802.157V15.68H796.797Z" fill="#105C8D"/>
<rect x="811.5" y="19.5" width="448.5" height="1" fill="#105C8D"/>
</svg>
