<svg width="1260" height="45" viewBox="0 0 1260 45" fill="none" xmlns="http://www.w3.org/2000/svg">
<rect y="19.5" width="432" height="1" fill="#105C8D"/>
<path d="M466.153 34H461.593L447.873 13.24V34H443.313V6.16H447.873L461.593 26.88V6.16H466.153V34ZM492.341 22.44C492.341 23.2667 492.287 24.0133 492.181 24.68H475.341C475.474 26.44 476.127 27.8533 477.301 28.92C478.474 29.9867 479.914 30.52 481.621 30.52C484.074 30.52 485.807 29.4933 486.821 27.44H491.741C491.074 29.4667 489.861 31.1333 488.101 32.44C486.367 33.72 484.207 34.36 481.621 34.36C479.514 34.36 477.621 33.8933 475.941 32.96C474.287 32 472.981 30.6667 472.021 28.96C471.087 27.2267 470.621 25.2267 470.621 22.96C470.621 20.6933 471.074 18.7067 471.981 17C472.914 15.2667 474.207 13.9333 475.861 13C477.541 12.0667 479.461 11.6 481.621 11.6C483.701 11.6 485.554 12.0533 487.181 12.96C488.807 13.8667 490.074 15.1467 490.981 16.8C491.887 18.4267 492.341 20.3067 492.341 22.44ZM487.581 21C487.554 19.32 486.954 17.9733 485.781 16.96C484.607 15.9467 483.154 15.44 481.421 15.44C479.847 15.44 478.501 15.9467 477.381 16.96C476.261 17.9467 475.594 19.2933 475.381 21H487.581ZM495.308 22.88C495.308 20.6667 495.761 18.7067 496.668 17C497.601 15.2933 498.855 13.9733 500.428 13.04C502.028 12.08 503.788 11.6 505.708 11.6C507.441 11.6 508.948 11.9467 510.228 12.64C511.535 13.3067 512.575 14.1467 513.348 15.16V11.96H517.948V34H513.348V30.72C512.575 31.76 511.521 32.6267 510.188 33.32C508.855 34.0133 507.335 34.36 505.628 34.36C503.735 34.36 502.001 33.88 500.428 32.92C498.855 31.9333 497.601 30.5733 496.668 28.84C495.761 27.08 495.308 25.0933 495.308 22.88ZM513.348 22.96C513.348 21.44 513.028 20.12 512.388 19C511.775 17.88 510.961 17.0267 509.948 16.44C508.935 15.8533 507.841 15.56 506.668 15.56C505.495 15.56 504.401 15.8533 503.388 16.44C502.375 17 501.548 17.84 500.908 18.96C500.295 20.0533 499.988 21.36 499.988 22.88C499.988 24.4 500.295 25.7333 500.908 26.88C501.548 28.0267 502.375 28.9067 503.388 29.52C504.428 30.1067 505.521 30.4 506.668 30.4C507.841 30.4 508.935 30.1067 509.948 29.52C510.961 28.9333 511.775 28.08 512.388 26.96C513.028 25.8133 513.348 24.48 513.348 22.96ZM528.498 15.16C529.164 14.04 530.044 13.1733 531.138 12.56C532.258 11.92 533.578 11.6 535.098 11.6V16.32H533.938C532.151 16.32 530.791 16.7733 529.858 17.68C528.951 18.5867 528.498 20.16 528.498 22.4V34H523.938V11.96H528.498V15.16ZM543.849 15.24C544.622 14.1733 545.676 13.3067 547.009 12.64C548.369 11.9467 549.876 11.6 551.529 11.6C553.476 11.6 555.236 12.0667 556.809 13C558.382 13.9333 559.622 15.2667 560.529 17C561.436 18.7067 561.889 20.6667 561.889 22.88C561.889 25.0933 561.436 27.08 560.529 28.84C559.622 30.5733 558.369 31.9333 556.769 32.92C555.196 33.88 553.449 34.36 551.529 34.36C549.822 34.36 548.302 34.0267 546.969 33.36C545.662 32.6933 544.622 31.84 543.849 30.8V34H539.289V4.4H543.849V15.24ZM557.249 22.88C557.249 21.36 556.929 20.0533 556.289 18.96C555.676 17.84 554.849 17 553.809 16.44C552.796 15.8533 551.702 15.56 550.529 15.56C549.382 15.56 548.289 15.8533 547.249 16.44C546.236 17.0267 545.409 17.88 544.769 19C544.156 20.12 543.849 21.44 543.849 22.96C543.849 24.48 544.156 25.8133 544.769 26.96C545.409 28.08 546.236 28.9333 547.249 29.52C548.289 30.1067 549.382 30.4 550.529 30.4C551.702 30.4 552.796 30.1067 553.809 29.52C554.849 28.9067 555.676 28.0267 556.289 26.88C556.929 25.7333 557.249 24.4 557.249 22.88ZM586.238 11.96L572.718 44.36H567.998L572.478 33.64L563.798 11.96H568.878L575.078 28.76L581.518 11.96H586.238ZM614.51 34L608.11 22.88H604.63V34H600.07V6.2H609.67C611.804 6.2 613.604 6.57333 615.07 7.32C616.564 8.06666 617.67 9.06667 618.39 10.32C619.137 11.5733 619.51 12.9733 619.51 14.52C619.51 16.3333 618.977 17.9867 617.91 19.48C616.87 20.9467 615.257 21.9467 613.07 22.48L619.95 34H614.51ZM604.63 19.24H609.67C611.377 19.24 612.657 18.8133 613.51 17.96C614.39 17.1067 614.83 15.96 614.83 14.52C614.83 13.08 614.404 11.96 613.55 11.16C612.697 10.3333 611.404 9.92 609.67 9.92H604.63V19.24ZM645.544 22.44C645.544 23.2667 645.49 24.0133 645.384 24.68H628.544C628.677 26.44 629.33 27.8533 630.504 28.92C631.677 29.9867 633.117 30.52 634.824 30.52C637.277 30.52 639.01 29.4933 640.024 27.44H644.944C644.277 29.4667 643.064 31.1333 641.304 32.44C639.57 33.72 637.41 34.36 634.824 34.36C632.717 34.36 630.824 33.8933 629.144 32.96C627.49 32 626.184 30.6667 625.224 28.96C624.29 27.2267 623.824 25.2267 623.824 22.96C623.824 20.6933 624.277 18.7067 625.184 17C626.117 15.2667 627.41 13.9333 629.064 13C630.744 12.0667 632.664 11.6 634.824 11.6C636.904 11.6 638.757 12.0533 640.384 12.96C642.01 13.8667 643.277 15.1467 644.184 16.8C645.09 18.4267 645.544 20.3067 645.544 22.44ZM640.784 21C640.757 19.32 640.157 17.9733 638.984 16.96C637.81 15.9467 636.357 15.44 634.624 15.44C633.05 15.44 631.704 15.9467 630.584 16.96C629.464 17.9467 628.797 19.2933 628.584 21H640.784ZM658.031 34.36C656.298 34.36 654.738 34.0533 653.351 33.44C651.991 32.8 650.911 31.9467 650.111 30.88C649.311 29.7867 648.885 28.5733 648.831 27.24H653.551C653.631 28.1733 654.071 28.96 654.871 29.6C655.698 30.2133 656.725 30.52 657.951 30.52C659.231 30.52 660.218 30.28 660.911 29.8C661.631 29.2933 661.991 28.6533 661.991 27.88C661.991 27.0533 661.591 26.44 660.791 26.04C660.018 25.64 658.778 25.2 657.071 24.72C655.418 24.2667 654.071 23.8267 653.031 23.4C651.991 22.9733 651.085 22.32 650.311 21.44C649.565 20.56 649.191 19.4 649.191 17.96C649.191 16.7867 649.538 15.72 650.231 14.76C650.925 13.7733 651.911 13 653.191 12.44C654.498 11.88 655.991 11.6 657.671 11.6C660.178 11.6 662.191 12.24 663.711 13.52C665.258 14.7733 666.085 16.4933 666.191 18.68H661.631C661.551 17.6933 661.151 16.9067 660.431 16.32C659.711 15.7333 658.738 15.44 657.511 15.44C656.311 15.44 655.391 15.6667 654.751 16.12C654.111 16.5733 653.791 17.1733 653.791 17.92C653.791 18.5067 654.005 19 654.431 19.4C654.858 19.8 655.378 20.12 655.991 20.36C656.605 20.5733 657.511 20.8533 658.711 21.2C660.311 21.6267 661.618 22.0667 662.631 22.52C663.671 22.9467 664.565 23.5867 665.311 24.44C666.058 25.2933 666.445 26.4267 666.471 27.84C666.471 29.0933 666.125 30.2133 665.431 31.2C664.738 32.1867 663.751 32.96 662.471 33.52C661.218 34.08 659.738 34.36 658.031 34.36ZM676.718 15.68V27.88C676.718 28.7067 676.905 29.3067 677.278 29.68C677.678 30.0267 678.345 30.2 679.278 30.2H682.078V34H678.478C676.425 34 674.852 33.52 673.758 32.56C672.665 31.6 672.118 30.04 672.118 27.88V15.68H669.518V11.96H672.118V6.48H676.718V11.96H682.078V15.68H676.718ZM684.761 22.88C684.761 20.6667 685.215 18.7067 686.121 17C687.055 15.2933 688.308 13.9733 689.881 13.04C691.481 12.08 693.241 11.6 695.161 11.6C696.895 11.6 698.401 11.9467 699.681 12.64C700.988 13.3067 702.028 14.1467 702.801 15.16V11.96H707.401V34H702.801V30.72C702.028 31.76 700.975 32.6267 699.641 33.32C698.308 34.0133 696.788 34.36 695.081 34.36C693.188 34.36 691.455 33.88 689.881 32.92C688.308 31.9333 687.055 30.5733 686.121 28.84C685.215 27.08 684.761 25.0933 684.761 22.88ZM702.801 22.96C702.801 21.44 702.481 20.12 701.841 19C701.228 17.88 700.415 17.0267 699.401 16.44C698.388 15.8533 697.295 15.56 696.121 15.56C694.948 15.56 693.855 15.8533 692.841 16.44C691.828 17 691.001 17.84 690.361 18.96C689.748 20.0533 689.441 21.36 689.441 22.88C689.441 24.4 689.748 25.7333 690.361 26.88C691.001 28.0267 691.828 28.9067 692.841 29.52C693.881 30.1067 694.975 30.4 696.121 30.4C697.295 30.4 698.388 30.1067 699.401 29.52C700.415 28.9333 701.228 28.08 701.841 26.96C702.481 25.8133 702.801 24.48 702.801 22.96ZM733.351 11.96V34H728.791V31.4C728.071 32.3067 727.124 33.0267 725.951 33.56C724.804 34.0667 723.577 34.32 722.271 34.32C720.537 34.32 718.977 33.96 717.591 33.24C716.231 32.52 715.151 31.4533 714.351 30.04C713.577 28.6267 713.191 26.92 713.191 24.92V11.96H717.711V24.24C717.711 26.2133 718.204 27.7333 719.191 28.8C720.177 29.84 721.524 30.36 723.231 30.36C724.937 30.36 726.284 29.84 727.271 28.8C728.284 27.7333 728.791 26.2133 728.791 24.24V11.96H733.351ZM743.927 15.16C744.594 14.04 745.474 13.1733 746.567 12.56C747.687 11.92 749.007 11.6 750.527 11.6V16.32H749.367C747.581 16.32 746.221 16.7733 745.287 17.68C744.381 18.5867 743.927 20.16 743.927 22.4V34H739.367V11.96H743.927V15.16ZM753.199 22.88C753.199 20.6667 753.652 18.7067 754.559 17C755.492 15.2933 756.745 13.9733 758.319 13.04C759.919 12.08 761.679 11.6 763.599 11.6C765.332 11.6 766.839 11.9467 768.119 12.64C769.425 13.3067 770.465 14.1467 771.239 15.16V11.96H775.839V34H771.239V30.72C770.465 31.76 769.412 32.6267 768.079 33.32C766.745 34.0133 765.225 34.36 763.519 34.36C761.625 34.36 759.892 33.88 758.319 32.92C756.745 31.9333 755.492 30.5733 754.559 28.84C753.652 27.08 753.199 25.0933 753.199 22.88ZM771.239 22.96C771.239 21.44 770.919 20.12 770.279 19C769.665 17.88 768.852 17.0267 767.839 16.44C766.825 15.8533 765.732 15.56 764.559 15.56C763.385 15.56 762.292 15.8533 761.279 16.44C760.265 17 759.439 17.84 758.799 18.96C758.185 20.0533 757.879 21.36 757.879 22.88C757.879 24.4 758.185 25.7333 758.799 26.88C759.439 28.0267 760.265 28.9067 761.279 29.52C762.319 30.1067 763.412 30.4 764.559 30.4C765.732 30.4 766.825 30.1067 767.839 29.52C768.852 28.9333 769.665 28.08 770.279 26.96C770.919 25.8133 771.239 24.48 771.239 22.96ZM792.948 11.6C794.681 11.6 796.228 11.96 797.588 12.68C798.975 13.4 800.055 14.4667 800.828 15.88C801.601 17.2933 801.988 19 801.988 21V34H797.468V21.68C797.468 19.7067 796.975 18.2 795.988 17.16C795.001 16.0933 793.655 15.56 791.948 15.56C790.241 15.56 788.881 16.0933 787.868 17.16C786.881 18.2 786.388 19.7067 786.388 21.68V34H781.828V11.96H786.388V14.48C787.135 13.5733 788.081 12.8667 789.228 12.36C790.401 11.8533 791.641 11.6 792.948 11.6ZM813.125 15.68V27.88C813.125 28.7067 813.311 29.3067 813.685 29.68C814.085 30.0267 814.751 30.2 815.685 30.2H818.485V34H814.885C812.831 34 811.258 33.52 810.165 32.56C809.071 31.6 808.525 30.04 808.525 27.88V15.68H805.925V11.96H808.525V6.48H813.125V11.96H818.485V15.68H813.125Z" fill="#105C8D"/>
<rect x="828" y="19.5" width="432" height="1" fill="#105C8D"/>
</svg>
