<svg width="125" height="57" viewBox="0 0 125 57" fill="none" xmlns="http://www.w3.org/2000/svg">
<g id="Frame 1321316283">
<line id="Divider" x1="0.5" y1="56.5" x2="124.5" y2="56.5" stroke="black"/>
<g id="search_hands_free">
<mask id="mask0_761_5153" style="mask-type:alpha" maskUnits="userSpaceOnUse" x="5" y="0" width="49" height="48">
<rect id="Bounding box" x="5.5" width="48" height="48" fill="#D9D9D9"/>
</mask>
<g mask="url(#mask0_761_5153)">
<path id="search_hands_free_2" d="M29.5 44C26.7333 44 24.1333 43.475 21.7 42.425C19.2667 41.375 17.15 39.95 15.35 38.15C13.55 36.35 12.125 34.2333 11.075 31.8C10.025 29.3667 9.5 26.7667 9.5 24C9.5 21.2333 10.025 18.6333 11.075 16.2C12.125 13.7667 13.55 11.65 15.35 9.85C17.15 8.05 19.2667 6.625 21.7 5.575C24.1333 4.525 26.7333 4 29.5 4C32.2667 4 34.8667 4.525 37.3 5.575C39.7333 6.625 41.85 8.05 43.65 9.85C45.45 11.65 46.875 13.7667 47.925 16.2C48.975 18.6333 49.5 21.2333 49.5 24C49.5 26.7667 48.975 29.3667 47.925 31.8C46.875 34.2333 45.45 36.35 43.65 38.15C41.85 39.95 39.7333 41.375 37.3 42.425C34.8667 43.475 32.2667 44 29.5 44ZM27.5 39.8V33.8C25.5 33.4 23.8 32.5 22.4 31.1C21 29.7 20.1 28 19.7 26H13.7C14.1 29.6333 15.5917 32.7167 18.175 35.25C20.7583 37.7833 23.8667 39.3 27.5 39.8ZM31.5 39.8C35.1333 39.4 38.2417 37.9083 40.825 35.325C43.4083 32.7417 44.9 29.6333 45.3 26H39.3C38.9 28 38 29.7 36.6 31.1C35.2 32.5 33.5 33.4 31.5 33.8V39.8ZM13.7 22H19.5L25.5 16H33.5L39.5 22H45.3C44.8 17.9667 43.05 14.625 40.05 11.975C37.05 9.325 33.5333 8 29.5 8C25.4667 8 21.95 9.325 18.95 11.975C15.95 14.625 14.2 17.9667 13.7 22Z" fill="#1C1B1F"/>
</g>
</g>
</g>
</svg>
